<svg width="24" height="16" viewBox="0 0 24 16" fill="none" xmlns="http://www.w3.org/2000/svg">
<path d="M1.98894 16H21.946C22.632 16 23.1939 15.4 23.1939 14.6667C23.1939 13.9333 22.632 13.3333 21.946 13.3333H1.98894C1.30294 13.3333 0.741943 13.9333 0.741943 14.6667C0.741943 15.4 1.30294 16 1.98894 16ZM1.98894 9.3333H21.946C22.632 9.3333 23.1939 8.7333 23.1939 8C23.1939 7.2667 22.632 6.6667 21.946 6.6667H1.98894C1.30294 6.6667 0.741943 7.2667 0.741943 8C0.741943 8.7333 1.30294 9.3333 1.98894 9.3333ZM0.741943 1.3333C0.741943 2.0667 1.30294 2.6667 1.98894 2.6667H21.946C22.632 2.6667 23.1939 2.0667 23.1939 1.3333C23.1939 0.600002 22.632 0 21.946 0H1.98894C1.30294 0 0.741943 0.600002 0.741943 1.3333Z" fill="black"/>
</svg>
